# xmcd
#
# Track frame offsets:
#  150
#  27634
#  37711
#  50384
#  63264
#  73854
#  85218
#  98030
#  110734
#  124202
#  136324
#  169827
#  181775
#  194152
#  210449
#  223570
#  246714
#  258693
#  268587
#
# Disc length: 3814 seconds
#
# Revision: 0
# Processed by: cddbd v1.5.2PL0 Copyright (c) Steve Scherf et al.
# Submitted via: Collectorz.com_Music_Collector 6.9
#
DISCID=250ee413
DTITLE=Various Artist - Christmas Blues
DYEAR=1900
DGENRE=Kerstmuziek
TTITLE0=SUNNY ROADS - Christmas night
TTITLE1=Clarence Carter - Backdoor Santa
TTITLE2=Unknown - Unknown
TTITLE3=Duke Robillard and Maria Muldaur - Christmas Blues
TTITLE4=B.B. King - Old Lang Syne
TTITLE5=Canned Heat - It's Christmas time everybody
TTITLE6=Lynnyrd Skynyrd - Family Christmas Time
TTITLE7=Brendan Crocker - Christmas in prison
TTITLE8=Floyd Dixon - Empty Stocking Blues
TTITLE9=Jasper Stone - Sadlin' up for Christmas
TTITLE10=Melvin Taylor - Merry Christmas Baby
TTITLE11=Ralph Willis - Christmas Blues
TTITLE12=Big Dave Mclean - Santa's coming down with the blues
TTITLE13=B.B. King - Christmas Celebration
TTITLE14=Larry Darnell - Gonna be a blue Christmas
TTITLE15=Bukka White - Tree blues
TTITLE16=Duke Robillard - Duke's Christmas tune
TTITLE17=Paul James - Crazy little kitten for Christmas
TTITLE18=B.B. King - Merry Christmas Baby
EXTD=
EXTT0=
EXTT1=
EXTT2=
EXTT3=
EXTT4=
EXTT5=
EXTT6=
EXTT7=
EXTT8=
EXTT9=
EXTT10=
EXTT11=
EXTT12=
EXTT13=
EXTT14=
EXTT15=
EXTT16=
EXTT17=
EXTT18=
PLAYORDER=
